<?xml version="1.0"?>

<!DOCTYPE svg PUBLIC "-//W3C//DTD SVG 1.1//EN" 
                     "http://www.w3.org/Graphics/SVG/1.1/DTD/svg11.dtd">

<svg xmlns="http://www.w3.org/2000/svg"
     xmlns:xlink="http://www.w3.org/1999/xlink"
     version="1.1"
     width="790" height="450">

    <title>Pipelines: a Big Picture</title>
    
    <script type="application/ecmascript" xlink:href="../../../../../js/svg-grid.js"></script>
    
    <script type="application/ecmascript">
        window.addEventListener("load", () => {
            //svgBkGrid.setupGrid(40);
        });
        
    </script>
    
    <defs>
        <style type="text/css"><![CDATA[
            svg {
                border: 1px solid #ccc;
            }
            
            text, tspan {
                font-family: verdana;
            
                text-anchor: middle;
                dominant-baseline: central;
                font-size: 8px;
            }
            
            text.title {
                
                font-size: 12px;
                font-weight: bold;
                fill: #369;
                stroke: none;
            }
            
            text.arrow-label {
                
                
                fill: #000;
                stroke: none;
            }
            
            text.in-rounded-box {
                
                
                fill: black;
                stroke: none;
            }
            
            text.in-state-object-box {
                
                
                fill: white;
                stroke: none;
            }
            
            g.index-number {
            }
            
            g.index-number text {
                font-family: arial;
                fill: #999;
                stroke: none;
            }
            
            rect.rounded {
                fill: #eee;
                stroke: #aaa;
            }
            
            rect.state-object {
                fill: hsla(310, 55%, 38%, 0.8);
                stroke: #aaa;
            }
            
            g.red-arrow path {
                stroke: hsla(0, 75%, 50%, 0.9);
                fill: none;
                stroke-width: 3px;
            }
            
            g.green-arrow path {
                stroke: hsla(120, 30%, 50%, 0.9);
                fill: none;
                stroke-width: 3px;
            }
            
            g.gray-arrow path {
                stroke: #ccc;
                fill: none;
                stroke-width: 3px;
            }
            
            line.div-border-line {
                stroke: #ccc;
                fill: none;
                stroke-dasharray: 9 5;
            }
            
        ]]></style>
        
        <rect id="array-bg-rect" x="1" y="1" width="18" height="18" stroke="none" />
        
        <path id="arrow-end-path" d="M 0 0 L 50 25 L 0 50 z" />
        
        
        <marker id="red-arrow-start-marker" viewBox="0 0 50 50" refX="50" refY="25" markerUnits="strokeWidth" markerWidth="3" markerHeight="3" orient="auto">
            <use xlink:href="#arrow-end-path" transform="rotate(180, 25, 25)" style="fill: hsla(0, 75%, 50%, 0.9); stroke: none;" />
        </marker>
        
        <marker id="red-arrow-end-marker" viewBox="0 0 50 50" refX="0" refY="25" markerUnits="strokeWidth" markerWidth="3" markerHeight="3" orient="auto">
            <use xlink:href="#arrow-end-path" style="fill: hsla(0, 75%, 50%, 0.9); stroke: none;" />
        </marker>
        
        <marker id="green-arrow-start-marker" viewBox="0 0 50 50" refX="50" refY="25" markerUnits="strokeWidth" markerWidth="3" markerHeight="3" orient="auto">
            <use xlink:href="#arrow-end-path" transform="rotate(180, 25, 25)" style="fill: hsla(120, 30%, 50%, 0.9); stroke: none;" />
        </marker>
        
        <marker id="green-arrow-end-marker" viewBox="0 0 50 50" refX="0" refY="25" markerUnits="strokeWidth" markerWidth="3" markerHeight="3" orient="auto">
            <use xlink:href="#arrow-end-path" style="fill: hsla(120, 30%, 50%, 0.9); stroke: none;" />
        </marker>
        
        <marker id="gray-arrow-start-marker" viewBox="0 0 50 50" refX="50" refY="25" markerUnits="strokeWidth" markerWidth="3" markerHeight="3" orient="auto">
            <use xlink:href="#arrow-end-path" transform="rotate(180, 25, 25)" style="fill: #ccc; stroke: none;" />
        </marker>
        
        <marker id="gray-arrow-end-marker" viewBox="0 0 50 50" refX="0" refY="25" markerUnits="strokeWidth" markerWidth="3" markerHeight="3" orient="auto">
            <use xlink:href="#arrow-end-path" style="fill: #ccc; stroke: none;" />
        </marker>
        
        <g id="gl-object">
            <rect x="-20" y="-8" width="40" height="16" rx="3" ry="3" class="rounded" />
            <text x="0" y="-1" class="in-rounded-box">gl</text>
        </g>
        
        <g id="buffer-object">
            <rect x="-20" y="-8" width="40" height="16" rx="3" ry="3" class="rounded" />
            <text x="0" y="-1" class="in-rounded-box">buffer</text>
        </g>
        
        <g id="buffer-object-empty">
            <text x="60" y="-20" class="title">buffer</text>
            <rect x="0" y="0" width="140" height="36" fill="#eee" stroke="#aaa" rx="3" ry="3" transform="translate(-10, -4)" />
        </g>
        
        <g id="buffer-object-filled-data">
            <use x="0" y="0" xlink:href="#buffer-object-empty" />
            <path d="M 0 0 h 120 v 20 h -120 v -20
                     m 20 0 v 20
                     m 20 -20 v 20
                     m 20 -20 v 20
                     m 20 -20 v 20
                     m 20 -20 v 20"
                  fill="none" stroke="#666" />
            
            <text x="10" y="10">0.0</text> <text x="30" y="10">0.5</text>
            <text x="50" y="10">-0.5</text> <text x="70" y="10">-0.5</text>
            <text x="90" y="10">0.5</text> <text x="110" y="10">-0.5</text>
            
            <text x="10" y ="25" fill="#aaa">0</text>
            <text x="30" y ="25" fill="#aaa">1</text>
            <text x="50" y ="25" fill="#aaa">2</text>
            <text x="70" y ="25" fill="#aaa">3</text>
            <text x="90" y ="25" fill="#aaa">4</text>
            <text x="110" y ="25" fill="#aaa">5</text>
        </g>
        
        
        
        <g id="glPosition-object">
            <rect x="-30" y="-8" width="60" height="16" rx="3" ry="3" class="rounded" />
            <text x="0" y="-1" class="in-rounded-box">gl_Position</text>
        </g>
        
        <g id="vertex-shader-object">
            <rect x="-40" y="-20" width="80" height="40" rx="3" ry="3" class="state-object" />
            <text x="0" y="0" class="in-state-object-box">Vertex Shader</text>
        </g>
        
        <g id="fragment-shader-object">
            <rect x="-40" y="-20" width="80" height="40" rx="3" ry="3" class="state-object" />
            <text x="0" y="0" class="in-state-object-box">Fragment Shader</text>
        </g>
        
        <g id="program-object">
            <rect x="-40" y="-20" width="80" height="40" rx="3" ry="3" class="state-object" />
            <text x="0" y="0" class="in-state-object-box">Program</text>
        </g>
        
        <g id="webgl-check-state-flag">
            <rect x="-5" y="-5" width="10" height="10" fill="red" stroke="#999" />
        </g>
        
        <g id="a-vertex-attribute-path">
            <path d="M 0 0 h 80 v 20 h -80 v -20"
                  stroke="#333" fill="none" />
            <path d="M 20 0 v 20
                     m 20 -20 v 20
                     m 20 -20 v 20"
                     stroke="#999" fill="none" />
        </g>
        
        <path id="enabled-state"
                d="M -10 -10 h 20 v 20 h -20 v -20
                    M -7 1 L -1 7 L 7 -7 "
              stroke="black" fill="none" transform="scale(0.6, 0.6)" />
        
        <path id="disabled-state"
                d="M -10 -10 h 20 v 20 h -20 v -20
                    M 6 -6 L -6 6 M -6 -6 L 6 6"
              stroke="black" fill="none" transform="scale(0.6, 0.6)" />
        
        <path id="up-bracket" d="M 0,0 q 0,-8 35,-8 l 5, -8 l 5 8 Q 80,-8 80,0"
              fill="none" stroke="gray"
              transform="translate(4, -4) scale(0.9, 1)" />
        
        <g id="vertices-array-data">
            <text x="60" y="-20" class="title">vertices</text>
            <rect x="0" y="0" width="140" height="36" fill="#eee" stroke="#aaa" rx="3" ry="3" transform="translate(-10, -4)" />
            <path d="M 0 0 h 120 v 20 h -120 v -20
                     m 20 0 v 20
                     m 20 -20 v 20
                     m 20 -20 v 20
                     m 20 -20 v 20
                     m 20 -20 v 20"
                  fill="none" stroke="#666" />
            
            <text x="10" y="10">0.0</text> <text x="30" y="10">0.5</text>
            <text x="50" y="10">-0.5</text> <text x="70" y="10">-0.5</text>
            <text x="90" y="10">0.5</text> <text x="110" y="10">-0.5</text>
            
            <text x="10" y ="25" fill="#aaa">0</text>
            <text x="30" y ="25" fill="#aaa">1</text>
            <text x="50" y ="25" fill="#aaa">2</text>
            <text x="70" y ="25" fill="#aaa">3</text>
            <text x="90" y ="25" fill="#aaa">4</text>
            <text x="110" y ="25" fill="#aaa">5</text>
        </g>
        
        <g id="buffer-array-data">
            <text x="150" y="-20" class="title">buffer</text>
            <rect x="0" y="0" width="320" height="36" fill="#eee" stroke="#aaa" rx="3" ry="3" transform="translate(-10, -4)" />
            <path d="M 0 0 h 300 v 20 h -300 v -20
                     m 20 0 v 20
                     m 20 -20 v 20
                     m 20 -20 v 20
                     m 20 -20 v 20
                     m 20 -20 v 20
                     m 20 -20 v 20
                     m 20 -20 v 20
                     m 20 -20 v 20
                     m 20 -20 v 20
                     m 20 -20 v 20
                     m 20 -20 v 20
                     m 20 -20 v 20
                     m 20 -20 v 20
                     m 20 -20 v 20"
                  fill="none" stroke="#666" />
            
            <use x="0" y="0" xlink:href="#array-bg-rect" fill="hsl(120, 30%, 80%)" />
            <use x="20" y="0" xlink:href="#array-bg-rect" fill="hsl(120, 30%, 80%)" />
            <use x="40" y="0" xlink:href="#array-bg-rect" fill="hsl(220, 30%, 80%)" />
            <use x="60" y="0" xlink:href="#array-bg-rect" fill="hsl(220, 30%, 80%)" />
            <use x="80" y="0" xlink:href="#array-bg-rect" fill="hsl(220, 30%, 80%)" />
            
            <use x="100" y="0" xlink:href="#array-bg-rect" fill="hsl(120, 30%, 80%)" />
            <use x="120" y="0" xlink:href="#array-bg-rect" fill="hsl(120, 30%, 80%)" />
            <use x="140" y="0" xlink:href="#array-bg-rect" fill="hsl(220, 30%, 80%)" />
            <use x="160" y="0" xlink:href="#array-bg-rect" fill="hsl(220, 30%, 80%)" />
            <use x="180" y="0" xlink:href="#array-bg-rect" fill="hsl(220, 30%, 80%)" />
            
            <use x="200" y="0" xlink:href="#array-bg-rect" fill="hsl(120, 30%, 80%)" />
            <use x="220" y="0" xlink:href="#array-bg-rect" fill="hsl(120, 30%, 80%)" />
            <use x="240" y="0" xlink:href="#array-bg-rect" fill="hsl(220, 30%, 80%)" />
            <use x="260" y="0" xlink:href="#array-bg-rect" fill="hsl(220, 30%, 80%)" />
            <use x="280" y="0" xlink:href="#array-bg-rect" fill="hsl(220, 30%, 80%)" />
            
            <g>
                <text x="10" y="10">0.0</text> <text x="30" y="10">0.5</text>
                <text x="50" y="10">1.0</text> <text x="70" y="10">0.0</text> <text x="90" y="10">0.0</text>
                
                <text x="110" y="10">-0.5</text> <text x="130" y="10">-0.5</text>
                <text x="150" y="10">0.0</text> <text x="170" y="10">1.0</text> <text x="190" y="10">0.0</text>
                
                <text x="210" y="10">0.5</text> <text x="230" y="10">-0.5</text>
                <text x="250" y="10">0.0</text> <text x="270" y="10">0.0</text> <text x="290" y="10">1.0</text>

                <text x="10" y ="25" fill="hsl(60, 50%, 40%)">0</text>
                <text x="30" y ="25" fill="hsl(60, 50%, 40%)">1</text>
                <text x="50" y ="25" fill="hsl(60, 50%, 40%)">2</text>
                <text x="70" y ="25" fill="hsl(60, 50%, 40%)">3</text>
                <text x="90" y ="25" fill="hsl(60, 50%, 40%)">4</text>
                <text x="110" y ="25" fill="hsl(180, 50%, 40%)">5</text>
                <text x="130" y ="25" fill="hsl(180, 50%, 40%)">6</text>
                <text x="150" y ="25" fill="hsl(180, 50%, 40%)">7</text>
                <text x="170" y ="25" fill="hsl(180, 50%, 40%)">8</text>
                <text x="190" y ="25" fill="hsl(180, 50%, 40%)">9</text>
                <text x="210" y ="25" fill="hsl(300, 50%, 40%)">10</text>
                <text x="230" y ="25" fill="hsl(300, 50%, 40%)">11</text>
                <text x="250" y ="25" fill="hsl(300, 50%, 40%)">12</text>
                <text x="270" y ="25" fill="hsl(300, 50%, 40%)">13</text>
                <text x="290" y ="25" fill="hsl(300, 50%, 40%)">14</text>
            </g>
        </g>
        
        <g id="shader-attribute-array">
            <g>
                <text x="150" y="-20"  class="title" style="fill:hsl(220, 40%, 50%)">Vertex Shader Attributes</text>
                <rect x="0" y="0" width="300" height="140" fill="hsla(310, 35%, 78%, 1.0)" stroke="ccc" rx="5" ry="5" />
                
                <text x="20" y="10" font-weight="bold">Index</text>
                <text x="80" y="10" font-weight="bold">Components</text>
                <text x="160" y="10" font-weight="bold">Name</text>
                <text x="240" y="10" font-weight="bold">Enabled as Array</text>
                
                <line x1="5" y1="20" x2="295" y2="20" stroke="#aaa" stroke-dasharray="25 5" />

                <text x="20" y="40" fill="red" font-weight="bold" >0</text>
                <use x="40" y="30" xlink:href="#a-vertex-attribute-path" />
                <g class="index-number">
                    <text x="50" y="58">0</text>
                    <text x="70" y="58">1</text>
                    <text x="90" y="58">2</text>
                    <text x="110" y="58">3</text>
                </g>
                <text x="160" y="40" font-weight="bold">vPosition</text>
                <use x="240" y="40" xlink:href="#disabled-state" />

<!--                <text x="20" y="90" fill="red" font-weight="bold" >1</text>
                <use x="40" y="80" xlink:href="#a-vertex-attribute-path" />
                <g class="index-number">
                    <text x="50" y="108">0</text>
                    <text x="70" y="108">1</text>
                    <text x="90" y="108">2</text>
                    <text x="110" y="108">3</text>
                </g>
                <use x="240" y="90" xlink:href="#disabled-state" />
                
                <text x="20" y="140" fill="red" font-weight="bold" >2</text>
                <use x="40" y="130" xlink:href="#a-vertex-attribute-path" />
                <g class="index-number">
                    <text x="50" y="158">0</text>
                    <text x="70" y="158">1</text>
                    <text x="90" y="158">2</text>
                    <text x="110" y="158">3</text>
                </g>
                <use x="240" y="140" xlink:href="#disabled-state" />-->
                
                <text x="80" y="77">... ...</text>
                
                <text x="20" y="110" fill="red" font-weight="bold" >n - 1</text>
                <use x="40" y="100" xlink:href="#a-vertex-attribute-path" />
                <g class="index-number">
                    <text x="50" y="128">0</text>
                    <text x="70" y="128">1</text>
                    <text x="90" y="128">2</text>
                    <text x="110" y="128">3</text>
                </g>
                <use x="240" y="110" xlink:href="#disabled-state" />
            </g>
        </g>
        
        <g id="vertex-shader-detail" transform="translate(10, 40)">
            <text x="225" y="-60" class="title">Vertex Shader</text>
            <rect x="-10" y="-40" width="450" height="200" fill="hsla(310, 35%, 85%, 1.0)" stroke="ccc" rx="5" ry="5" />
            
            <use x="0" y="0" xlink:href="#shader-attribute-array" />
            
            <g>
                <use x="400" y="80" xlink:href="#glPosition-object" />
            </g>
            
            <g class="red-arrow">
                <path d="M 310 40 h 20 v 40 h 20" marker-end="url(#red-arrow-end-marker)" />
            </g>
        </g>
        
        <path d="M 0 -5 q 0 -20 20 -20 l 40 0 q 16 -1 20 -15"
            stroke="black" fill="none" id="left-up-brace" />
        
        <g id="up-brace">
            <use x="0" y="0" xlink:href="#left-up-brace" />
            <use x="0" y="0" xlink:href="#left-up-brace" transform="translate(160, 0), scale(-1, 1)" />
        </g>
    </defs>

    <g>
        <use xlink:href="#whole-grid" />
        
        <text x="80" y="10" class="title">JavaScript Client</text>
        <text x="240" y="10" class="title">WebGL States</text>
        <text x="560" y="10" class="title">GPU</text>
        
        <line x1="5" y1="20" x2="785" y2="20" class="div-border-line" />
        <line x1="160" y1="5" x2="160" y2="445" class="div-border-line" />
        <line x1="320" y1="5" x2="320" y2="445" class="div-border-line" />
        
        <g transform="translate(10, 0)">
            <g transform="translate(230, 50)">
                <text x="0" y="-15" fill="brown">ARRAY_BUFFER</text>
                <use x="0" y="0" xlink:href="#webgl-check-state-flag" />
            </g>

            <use x="320" y="60" xlink:href="#vertex-shader-detail" />

            <use x="170" y="300" xlink:href="#buffer-object-empty" />

            <g class="green-arrow">
                <path d="M 230 265 v -195" marker-end="url(#green-arrow-end-marker)"
                      stroke-dasharray="9 3" />
            </g>
        </g>
        
        
        
        
        
<!--        <use x="20" y="406" xlink:href="#vertices-array-data" />
        
        
        <g class="red-arrow">
            <path d="M 160 420 h 80 v -70" marker-end="url(#red-arrow-end-marker)" />
        </g>-->
        
        
        
        
<!--        <g class="gray-arrow">
            <path d="M 80 366 V 50 H 210" marker-end="url(#gray-arrow-end-marker)"
                  stroke-dasharray="20 10" />
        </g>
        
        
        <g class="red-arrow">
            <path d="M 260 260 V 140 H 295" marker-end="url(#red-arrow-end-marker)" />
        </g>-->
        

        
        
        
        
    </g>
</svg>